<svg width="120" height="24" viewBox="0 0 120 24" fill="none" xmlns="http://www.w3.org/2000/svg">
<path d="M8 0C3.582 0 0 3.582 0 8V16C0 20.418 3.582 24 8 24H16C20.418 24 24 20.418 24 16V8C24 3.582 20.418 0 16 0H8Z" fill="url(#paint0_linear_596_699)"/>
<path d="M16 4C16 2.8954 15.1046 2 14 2H10C8.8954 2 8 2.8954 8 4V20C8 21.1046 8.8954 22 10 22H14C15.1046 22 16 21.1046 16 20V4Z" fill="white"/>
<path d="M40.4258 16.7617V4.9375H43.9297V16.7617C43.9297 17.9023 43.6797 18.8828 43.1797 19.7031C42.6797 20.5156 41.9961 21.1406 41.1289 21.5781C40.2695 22.0156 39.3008 22.2344 38.2227 22.2344C37.1055 22.2344 36.1172 22.0469 35.2578 21.6719C34.3984 21.2969 33.7227 20.7227 33.2305 19.9492C32.7383 19.168 32.4922 18.1797 32.4922 16.9844H36.0195C36.0195 17.6094 36.1055 18.1055 36.2773 18.4727C36.457 18.8398 36.7109 19.1016 37.0391 19.2578C37.3672 19.4141 37.7617 19.4922 38.2227 19.4922C38.668 19.4922 39.0547 19.3867 39.3828 19.1758C39.7109 18.9648 39.9648 18.6562 40.1445 18.25C40.332 17.8438 40.4258 17.3477 40.4258 16.7617ZM62.1453 13.0703V13.8789C62.1453 15.1758 61.9695 16.3398 61.618 17.3711C61.2664 18.4023 60.7703 19.2812 60.1297 20.0078C59.4891 20.7266 58.7234 21.2773 57.8328 21.6602C56.95 22.043 55.9695 22.2344 54.8914 22.2344C53.8211 22.2344 52.8406 22.043 51.95 21.6602C51.0672 21.2773 50.3016 20.7266 49.6531 20.0078C49.0047 19.2812 48.5008 18.4023 48.1414 17.3711C47.7898 16.3398 47.6141 15.1758 47.6141 13.8789V13.0703C47.6141 11.7656 47.7898 10.6016 48.1414 9.57812C48.493 8.54688 48.9891 7.66797 49.6297 6.94141C50.2781 6.21484 51.0437 5.66016 51.9266 5.27734C52.8172 4.89453 53.7977 4.70312 54.868 4.70312C55.9461 4.70312 56.9266 4.89453 57.8094 5.27734C58.7 5.66016 59.4656 6.21484 60.1062 6.94141C60.7547 7.66797 61.2547 8.54688 61.6062 9.57812C61.9656 10.6016 62.1453 11.7656 62.1453 13.0703ZM58.5945 13.8789V13.0469C58.5945 12.1406 58.5125 11.3438 58.3484 10.6562C58.1844 9.96875 57.9422 9.39062 57.6219 8.92188C57.3016 8.45312 56.9109 8.10156 56.45 7.86719C55.9891 7.625 55.4617 7.50391 54.868 7.50391C54.2742 7.50391 53.7469 7.625 53.2859 7.86719C52.8328 8.10156 52.4461 8.45312 52.1258 8.92188C51.8133 9.39062 51.575 9.96875 51.4109 10.6562C51.2469 11.3438 51.1648 12.1406 51.1648 13.0469V13.8789C51.1648 14.7773 51.2469 15.5742 51.4109 16.2695C51.575 16.957 51.8172 17.5391 52.1375 18.0156C52.4578 18.4844 52.8484 18.8398 53.3094 19.082C53.7703 19.3242 54.2977 19.4453 54.8914 19.4453C55.4852 19.4453 56.0125 19.3242 56.4734 19.082C56.9344 18.8398 57.3211 18.4844 57.6336 18.0156C57.9461 17.5391 58.1844 16.957 58.3484 16.2695C58.5125 15.5742 58.5945 14.7773 58.5945 13.8789ZM71.7711 18.4375L75.7906 4.9375H79.7047L73.7633 22H71.1852L71.7711 18.4375ZM68.068 4.9375L72.0758 18.4375L72.6852 22H70.0836L64.1773 4.9375H68.068ZM86.2367 4.9375V22H82.7328V4.9375H86.2367ZM97.8781 7.85547L93.2375 22H89.4992L95.8391 4.9375H98.218L97.8781 7.85547ZM101.734 22L97.0812 7.85547L96.7062 4.9375H99.1086L105.484 22H101.734ZM101.523 15.6484V18.4023H92.5109V15.6484H101.523ZM119.234 19.2578V22H110.645V19.2578H119.234ZM111.781 4.9375V22H108.266V4.9375H111.781Z" fill="url(#paint1_linear_596_699)"/>
<defs>
<linearGradient id="paint0_linear_596_699" x1="19" y1="1.5" x2="6.5" y2="22" gradientUnits="userSpaceOnUse">
<stop stop-color="#4F46E5"/>
<stop offset="0.5625" stop-color="#00625C"/>
</linearGradient>
<linearGradient id="paint1_linear_596_699" x1="32" y1="13.5" x2="120" y2="13.5" gradientUnits="userSpaceOnUse">
<stop offset="0.865385" stop-color="#067D75"/>
<stop offset="1" stop-color="#4F46E5"/>
</linearGradient>
</defs>
</svg>
